<svg width="59" height="59" viewBox="0 0 59 59" fill="none" xmlns="http://www.w3.org/2000/svg">
<path d="M48.6214 10.3786C43.5139 5.2713 36.723 2.45833 29.5 2.45833C22.277 2.45833 15.4861 5.27119 10.3786 10.3786C5.2713 15.4861 2.45834 22.277 2.45834 29.5C2.45834 36.723 5.2712 43.5139 10.3786 48.6214C15.4861 53.7287 22.277 56.5417 29.5 56.5417C36.723 56.5417 43.5139 53.7288 48.6214 48.6214C53.7287 43.5139 56.5417 36.723 56.5417 29.5C56.5417 22.277 53.7288 15.4861 48.6214 10.3786ZM14.1945 47.8056C15.0875 40.1225 21.6932 34.1908 29.5 34.1908C33.6154 34.1908 37.4855 35.7942 40.3965 38.7048C42.8557 41.1645 44.4068 44.3759 44.8058 47.8052C40.659 51.2783 35.3197 53.3727 29.5 53.3727C23.6803 53.3727 18.3414 51.2787 14.1945 47.8056ZM29.5 30.9268C24.9715 30.9268 21.2867 27.2421 21.2867 22.7136C21.2867 18.1846 24.9716 14.5003 29.5 14.5003C34.0284 14.5003 37.7133 18.1846 37.7133 22.7136C37.7133 27.2421 34.0285 30.9269 29.5 30.9269V30.9268ZM47.5333 45.1265C46.7191 41.8476 45.0263 38.8529 42.6371 36.4643C40.6895 34.5166 38.3854 33.0556 35.8725 32.1399C38.8934 30.0913 40.8822 26.6302 40.8822 22.7136C40.8822 16.4376 35.776 11.3314 29.5 11.3314C23.224 11.3314 18.1178 16.4376 18.1178 22.7136C18.1178 26.6323 20.1083 30.0946 23.1316 32.1429C20.8196 32.9854 18.6803 34.2881 16.8395 36.0029C14.1739 38.4852 12.3229 41.6505 11.4647 45.124C7.82991 40.9338 5.62728 35.4694 5.62728 29.5C5.62728 16.3365 16.3365 5.62727 29.5 5.62727C42.6635 5.62727 53.3727 16.3365 53.3727 29.5C53.3727 35.4706 51.1693 40.9363 47.5333 45.1265Z" fill="black"/>
</svg>
